<?xml version="1.0" standalone="no"?>
<!DOCTYPE svg PUBLIC "-//W3C//DTD SVG 20010904//EN"
 "http://www.w3.org/TR/2001/REC-SVG-20010904/DTD/svg10.dtd">
<svg version="1.0" xmlns="http://www.w3.org/2000/svg"
 width="482.000000pt" height="482.000000pt" viewBox="0 0 482.000000 482.000000"
 preserveAspectRatio="xMidYMid meet">
<metadata>
Created by potrace 1.11, written by Peter Selinger 2001-2013
</metadata>
<g transform="translate(0.000000,482.000000) scale(0.100000,-0.100000)"
fill="#000000" stroke="none">
<path d="M2159 4819 c-6 -28 -5 -70 2 -74 10 -7 13 -1125 3 -1125 -6 0 -75 38
-136 75 -9 6 -44 26 -78 45 -60 34 -67 42 -187 223 -68 103 -126 187 -130 187
-10 0 -73 -41 -73 -48 0 -4 29 -51 64 -104 35 -54 62 -98 61 -98 -2 0 -76 43
-164 96 -128 76 -164 94 -175 85 -15 -12 -41 -70 -35 -74 2 -2 114 -68 249
-147 135 -79 248 -146 252 -149 4 -3 -48 -7 -115 -7 -67 -1 -140 -2 -162 -3
l-41 -1 6 -47 5 -48 245 0 245 -1 55 -33 c30 -18 70 -42 87 -54 l33 -22 0
-582 c0 -321 -3 -583 -8 -583 -4 0 -57 34 -117 76 -164 113 -274 188 -293 199
-9 6 -19 12 -22 15 -3 3 -21 17 -40 30 -38 26 -60 46 -60 53 0 3 -20 40 -43
83 -47 86 -117 215 -150 279 -36 67 -35 67 -79 44 -45 -23 -45 -30 3 -111 16
-27 29 -51 29 -53 0 -2 16 -32 36 -65 20 -34 34 -63 32 -65 -3 -3 -93 55 -153
99 -51 37 -320 225 -341 238 -7 5 -22 -8 -39 -33 -22 -34 -25 -44 -13 -54 7
-7 75 -54 151 -105 75 -50 137 -94 137 -96 0 -3 -4 -3 -9 0 -8 5 -45 11 -141
21 -25 3 -58 7 -75 10 -129 18 -124 18 -129 -7 -13 -63 -13 -78 0 -79 8 -1 17
-2 22 -3 6 -2 99 -13 177 -22 17 -2 59 -6 95 -9 36 -3 76 -7 90 -10 14 -2 52
-7 84 -10 50 -5 72 -14 136 -58 42 -29 90 -62 106 -74 16 -12 81 -57 144 -99
117 -78 297 -202 315 -217 6 -4 42 -29 80 -55 l70 -47 3 -508 c1 -312 -1 -507
-7 -507 -5 0 -31 13 -58 30 -43 27 -79 76 -363 505 -173 261 -319 475 -323
475 -4 0 -22 -10 -40 -22 -18 -13 -33 -24 -35 -24 -2 -1 112 -174 252 -385
141 -210 254 -384 253 -385 -2 -2 -57 31 -173 103 -10 7 -46 29 -79 50 -33 20
-61 41 -63 45 -2 4 -8 8 -14 8 -5 0 -29 14 -53 30 -24 17 -46 30 -49 30 -2 0
-32 18 -65 40 -33 22 -64 40 -70 40 -5 0 -11 3 -13 8 -1 4 -28 23 -58 41 -57
36 -110 80 -110 92 0 3 -31 71 -68 150 -38 79 -84 177 -102 217 -18 39 -37 72
-42 72 -5 0 -26 -9 -48 -20 l-39 -20 26 -57 c15 -32 48 -102 75 -157 27 -54
47 -100 45 -103 -3 -2 -105 59 -228 136 l-223 140 -28 -42 -28 -42 23 -17 c12
-9 33 -23 47 -30 14 -7 30 -17 35 -21 6 -4 70 -45 142 -90 765 -473 743 -459
698 -453 -61 8 -114 14 -176 21 -31 3 -67 8 -79 10 -12 2 -48 7 -79 11 -31 3
-59 8 -63 10 -10 7 -16 -8 -23 -58 -5 -33 -3 -45 7 -45 7 -1 31 -3 53 -6 41
-6 96 -12 200 -22 69 -7 113 -12 164 -20 20 -2 56 -7 81 -9 93 -10 144 -17
154 -23 24 -13 401 -248 406 -253 3 -3 21 -14 40 -24 19 -10 50 -30 68 -43
l32 -24 0 -531 0 -531 95 7 c116 8 230 29 310 57 301 105 522 324 626 622 22
62 26 67 54 68 16 0 38 2 47 4 9 2 34 5 56 8 60 9 201 64 267 104 207 128 361
344 416 583 6 25 13 54 16 65 3 11 7 90 7 176 l2 156 48 44 c109 99 198 246
237 395 24 90 32 255 18 351 -24 167 -120 350 -249 472 -70 67 -230 161 -274
161 -18 0 -40 27 -28 34 5 3 14 25 20 48 6 24 12 48 14 53 72 285 -32 577
-272 764 -128 100 -311 164 -470 164 -46 0 -46 0 -93 72 -54 84 -156 188 -241
245 -56 38 -191 109 -218 114 -7 2 -38 10 -69 20 -31 9 -71 19 -90 21 -51 8
-239 18 -240 14z"/>
</g>
</svg>
